<svg xmlns="http://www.w3.org/2000/svg" viewBox="0 0 298 120" fill="none">
  <path transform="translate(40 54)" d="M0 -22 L1.85 -3.2 L19.05 -11 L3.7 0 L19.05 11 L1.85 3.2 L0 22 L-1.85 3.2 L-19.05 11 L-3.7 0 L-19.05 -11 L-1.85 -3.2Z" fill="#B08A3E"/>
  <path transform="translate(81.09 84)" d="M15.74-49.73Q15.74-45.98 17.66-43.25Q19.58-40.51 22.61-38.30Q25.63-36.10 28.99-33.98Q32.64-31.78 35.95-29.28Q39.26-26.78 41.42-23.57Q43.58-20.35 43.58-15.74Q43.58-10.75 40.99-6.96Q38.40-3.17 33.84-1.01Q29.28 1.15 23.14 1.15Q20.54 1.15 17.71 0.67Q14.88 0.19 12.43-0.67Q9.98-1.54 8.45-2.50Q8.06-2.78 7.82-3.17Q7.58-3.55 7.49-4.32L6.91-18.82Q6.91-19.01 6.91-19.20Q7.10-19.30 7.39-19.39Q7.87-19.39 7.97-19.01Q9.12-16.13 10.70-12.91Q12.29-9.70 14.40-7.01Q16.51-4.32 19.25-2.64Q21.98-0.96 25.54-0.96Q28.03-0.96 30.24-1.82Q32.45-2.69 33.89-4.85Q35.33-7.01 35.33-10.75Q35.33-15.26 33.26-18.48Q31.20-21.70 28.03-24.10Q24.86-26.50 21.41-28.61Q18.05-30.82 14.98-33.12Q11.90-35.42 9.94-38.45Q7.97-41.47 7.97-45.79Q7.97-51.07 10.85-54.43Q13.73-57.79 18.19-59.42Q22.66-61.06 27.36-61.06Q30.53-61.06 33.79-60.48Q37.06-59.90 39.36-58.85Q40.22-58.56 40.51-58.08Q40.80-57.60 40.80-57.02L40.99-44.06Q40.99-43.68 40.56-43.58Q40.13-43.49 39.94-43.78Q39.46-45.22 38.50-47.76Q37.54-50.30 35.81-52.90Q34.08-55.49 31.49-57.31Q28.90-59.14 25.15-59.14Q22.27-59.14 20.16-57.98Q18.05-56.83 16.90-54.77Q15.74-52.70 15.74-49.73M66.43 1.15Q64.13 1.15 61.87 0.38Q59.62-0.38 58.13-2.21Q56.64-4.03 56.64-7.39L56.64-29.09Q56.64-31.20 56.21-32.35Q55.78-33.50 54.72-33.94Q53.66-34.37 51.74-34.37Q51.36-34.37 51.36-35.14Q51.36-35.90 51.74-35.90Q56.26-36.10 59.09-38.06Q61.92-40.03 63.07-43.68Q63.17-44.06 63.84-44.06Q64.51-44.06 64.51-43.68L64.51-36.10Q67.01-36.19 69.41-36.38Q73.06-36.67 77.28-37.06Q77.47-37.06 77.71-36.38Q77.95-35.71 77.95-34.75Q77.95-33.89 77.62-33.02Q77.28-32.16 76.90-32.26Q73.06-33.12 69.50-33.50Q67.10-33.70 64.51-33.79L64.51-10.56Q64.51-6.62 66.48-4.90Q68.45-3.17 71.62-3.17Q73.92-3.17 75.89-4.08Q77.86-4.99 79.20-6.05Q79.49-6.24 79.87-5.86Q80.06-5.57 80.06-5.38Q80.06-5.18 79.87-5.09Q76.32-1.82 73.20-0.34Q70.08 1.15 66.43 1.15M103.01 1.15Q96.96 1.15 92.74-1.44Q88.51-4.03 86.35-8.30Q84.19-12.58 84.19-17.38Q84.19-23.14 86.98-27.74Q89.76-32.35 94.56-35.14Q99.36-37.92 105.41-37.92Q111.07-37.92 114.24-35.23Q117.41-32.54 117.41-26.88Q117.41-25.63 117.22-24.86Q117.02-24.10 116.35-24.10L111.17-24.10L92.83-24Q92.74-22.75 92.74-21.41Q92.74-15.84 94.46-11.76Q96.19-7.68 99.55-5.38Q102.91-3.07 107.81-3.07Q110.78-3.07 112.80-3.89Q114.82-4.70 117.12-5.95Q117.12-5.95 117.22-6.05Q117.41-6.05 117.70-5.76Q117.98-5.38 117.79-5.09Q114.34-1.73 110.74-0.29Q107.14 1.15 103.01 1.15M93.02-25.73L108.48-26.02Q108.48-30.24 107.23-32.83Q105.60-36 101.95-36Q97.63-36 95.23-32.06Q93.60-29.38 93.02-25.73M124.32 0Q124.03 0 124.03-0.58Q124.03-1.15 124.32-1.15Q127.49-1.15 128.64-2.50Q129.79-3.84 129.79-7.78L129.79-56.83Q129.79-60.19 129.22-61.68Q128.64-63.17 127.01-63.17Q125.66-63.17 123.07-62.02Q122.78-61.92 122.50-62.50Q122.21-63.07 122.40-63.17L135.94-69.50Q136.13-69.60 136.32-69.60Q136.70-69.60 137.18-69.22Q137.66-68.83 137.66-68.54L137.66-7.78Q137.66-3.84 138.77-2.50Q139.87-1.15 143.14-1.15Q143.42-1.15 143.42-0.58Q143.42 0 143.14 0Q141.31 0 138.86-0.10Q136.42-0.19 133.73-0.19Q131.04-0.19 128.59-0.10Q126.14 0 124.32 0M186.53-4.13L176.64 0.58Q176.26 0.77 175.78 0.77Q174.24 0.77 172.70-1.44Q171.65-2.98 171.36-5.38L166.94-2.30Q164.74-0.77 162.86-0.05Q160.99 0.67 158.59 0.67Q154.56 0.67 152.59-1.25Q150.62-3.17 150.62-6.14Q150.62-8.83 152.06-10.51Q153.50-12.19 156.10-13.30Q158.69-14.40 161.86-15.55L171.17-19.01L171.17-24.77Q171.17-30.82 169.97-33.50Q168.77-36.19 166.18-36.19Q163.78-36.19 162.48-34.80Q161.18-33.41 160.61-31.63Q160.03-29.86 159.94-28.61Q159.65-26.21 158.45-24.96Q157.25-23.71 155.04-23.71Q152.83-23.71 151.87-24.72Q150.91-25.73 150.91-27.07Q150.91-29.18 152.88-31.15Q154.85-33.12 157.87-34.66Q160.90-36.19 164.16-37.10Q167.42-38.02 169.92-38.02Q173.86-38.02 176.40-35.52Q178.94-33.02 178.94-27.65L178.94-10.37Q178.94-7.39 179.90-5.86Q180.86-4.32 182.69-4.32Q184.22-4.32 186.14-5.18Q186.34-5.28 186.53-5.18Q186.72-5.09 186.82-4.90Q187.01-4.32 186.53-4.13M168.48-5.09L171.17-6.91Q171.17-7.39 171.17-7.87L171.17-17.38L165.41-14.98Q164.26-14.59 162.91-13.87Q161.57-13.15 160.66-12Q159.74-10.85 159.74-8.93Q159.74-6.62 161.28-5.23Q162.82-3.84 164.74-3.84Q165.60-3.84 166.46-4.08Q167.33-4.32 168.48-5.09" fill="#15233F"/>
</svg>
